<?xml version="1.0" encoding="iso-8859-1"?>
<!-- Generator: Adobe Illustrator 16.0.0, SVG Export Plug-In . SVG Version: 6.00 Build 0)  -->
<!DOCTYPE svg PUBLIC "-//W3C//DTD SVG 1.1//EN" "http://www.w3.org/Graphics/SVG/1.1/DTD/svg11.dtd">
<svg version="1.1" id="Capa_1" xmlns="http://www.w3.org/2000/svg" xmlns:xlink="http://www.w3.org/1999/xlink" x="0px" y="0px"
	 width="514.703px" height="514.703px" viewBox="0 0 514.703 514.703" style="enable-background:new 0 0 514.703 514.703;"
	 xml:space="preserve">
<g>
	<path d="M500.953,259.5v-9.925h-17.598h-17.585h-17.586v9.879h-45.214V95.478h-51.543V56.213
		c11.396-2.727,19.898-12.915,19.898-25.146c0-14.305-11.607-25.912-25.924-25.912c-14.305,0-25.899,11.607-25.899,25.912
		c0,12.22,8.501,22.42,19.897,25.146v39.265H184.667V50.784c10.953-3.024,19.052-12.961,19.052-24.872
		C203.719,11.613,192.117,0,177.807,0c-14.316,0-25.911,11.613-25.911,25.912c0,12.529,8.904,22.992,20.732,25.386v44.181h-58.292
		v163.976H66.507v-11.508H48.915H31.341H13.75v9.925h17.591v6.242H13.75v9.925h17.591v4.975H13.75v9.925h17.591v4.52H13.75v9.926
		h35.166v-0.023h17.592v-8.256h47.829v121.652h63.482v42.539h-63.482v55.408h126.959v-55.42H224.2v-42.527h65.713v42.527h-17.096
		v55.408h126.966v-55.408h-63.488v-42.527h66.664V295.104h45.214v9.879h17.586v0.035h35.171v-9.914h-17.598v-4.53h17.598v-9.926
		h-17.598v-4.975h17.598v-9.925h-17.598v-6.236h17.621V259.5z M345.426,246.2H174.467v-91.829h170.958V246.2z"/>
</g>
<g>
</g>
<g>
</g>
<g>
</g>
<g>
</g>
<g>
</g>
<g>
</g>
<g>
</g>
<g>
</g>
<g>
</g>
<g>
</g>
<g>
</g>
<g>
</g>
<g>
</g>
<g>
</g>
<g>
</g>
</svg>
