<?xml version="1.0" encoding="iso-8859-1"?>
<!-- Generator: Adobe Illustrator 16.0.0, SVG Export Plug-In . SVG Version: 6.00 Build 0)  -->
<!DOCTYPE svg PUBLIC "-//W3C//DTD SVG 1.1//EN" "http://www.w3.org/Graphics/SVG/1.1/DTD/svg11.dtd">
<svg version="1.1" id="Capa_1" xmlns="http://www.w3.org/2000/svg" xmlns:xlink="http://www.w3.org/1999/xlink" x="0px" y="0px"
	 width="535.416px" height="535.417px" viewBox="0 0 535.416 535.417" style="enable-background:new 0 0 535.416 535.417;"
	 xml:space="preserve">
<g>
	<path d="M500.364,167.693c-9.108-44.77-3.293-138.514-158.318-163.234C187.062-20.285,47.397,58.361,82.528,230.248
		c0,31.33-62.035,79.965-47.088,96.406c14.946,16.441,40.31,17.083,40.31,17.083s-16.488,31.33-9.073,39.982
		c7.409,8.653,28.025,4.951,28.025,4.951s-19.156,13.803-19.156,24.511c0,10.72,32.345,24.954,32.345,24.954
		s-5.932,59.285,42.64,55.174c48.57-4.109,56.75-17.83,56.75-17.83l14.41,59.938H409.68l-6.609-130.27
		C403.07,405.159,518.511,279.829,500.364,167.693z M338.298,293.374h-63.039v-60.3h63.039V293.374z M321.938,148.415
		c0.606-6.703-0.607-12.693-3.632-17.959c-3.024-5.278-8.186-7.917-15.449-7.917c-11.724,0-17.585,5.173-17.585,15.53
		c0,3.457,1.028,6.399,3.036,8.828c2.008,2.44,4.484,4.519,7.426,6.235c2.92,1.74,6.002,3.305,9.237,4.729
		c3.235,1.413,6.06,2.732,8.49,3.958c5.861,3.246,10.299,7.298,13.335,12.179c3.036,4.869,5.161,9.855,6.353,14.923
		c1.226,5.08,1.821,10.054,1.821,14.923c0,4.671-0.093,8.524-0.292,11.572h-56.073c0-3.456-0.251-6.492-0.753-9.131
		c-0.502-2.627-1.361-4.975-2.581-6.995c-1.208-2.02-2.931-3.958-5.155-5.792c-2.225-1.822-5.045-3.655-8.478-5.477
		c-5.045-2.639-9.996-5.22-14.848-7.754c-4.846-2.534-9.242-5.733-13.189-9.599c-3.946-3.842-7.129-8.676-9.546-14.468
		c-2.411-5.78-3.631-13.335-3.631-22.677c0.409-6.703,2.067-13.756,4.998-21.171c2.931-7.415,7.521-14.199,13.785-20.4
		c6.265-6.189,14.444-11.257,24.551-15.215c10.101-3.958,22.52-5.943,37.268-5.943c14.958,0,27.64,2.277,38.032,6.854
		c10.416,4.565,18.94,10.509,25.619,17.808c6.68,7.31,11.631,15.589,14.854,24.825c3.246,9.237,5.15,18.637,5.745,28.166h-63.336
		V148.415z"/>
</g>
<g>
</g>
<g>
</g>
<g>
</g>
<g>
</g>
<g>
</g>
<g>
</g>
<g>
</g>
<g>
</g>
<g>
</g>
<g>
</g>
<g>
</g>
<g>
</g>
<g>
</g>
<g>
</g>
<g>
</g>
</svg>
