<?xml version="1.0" encoding="iso-8859-1"?>
<!-- Generator: Adobe Illustrator 16.0.0, SVG Export Plug-In . SVG Version: 6.00 Build 0)  -->
<!DOCTYPE svg PUBLIC "-//W3C//DTD SVG 1.1//EN" "http://www.w3.org/Graphics/SVG/1.1/DTD/svg11.dtd">
<svg version="1.1" id="Capa_1" xmlns="http://www.w3.org/2000/svg" xmlns:xlink="http://www.w3.org/1999/xlink" x="0px" y="0px"
	 width="477.032px" height="477.033px" viewBox="0 0 477.032 477.033" style="enable-background:new 0 0 477.032 477.033;"
	 xml:space="preserve">
<g>
	<g>
		<path d="M400.221,146.98L261.135,40.286c1.729-3.672,2.779-7.725,2.779-12.045C263.914,12.652,251.244,0,235.626,0
			S207.35,12.652,207.35,28.241c0,4.618,1.203,8.91,3.165,12.763L80.42,146.968H22.618v330.064h431.796V146.98H400.221z
			 M218.087,50.282c4.829,3.848,10.877,6.253,17.539,6.253c6.96,0,13.248-2.622,18.188-6.778l126.778,97.224H99.36L218.087,50.282z
			 M430.499,453.119H46.533V170.895h383.966V453.119z"/>
		<polygon points="367.467,398.259 342.711,398.259 342.711,295.173 281.675,295.173 281.675,398.259 258.566,398.259 
			258.566,280.274 197.518,280.274 197.518,398.259 172.769,398.259 172.769,319.871 111.727,319.871 111.727,398.259 
			88.611,398.259 88.611,411.443 367.467,411.443 		"/>
		<polygon points="188.311,260.107 263.4,260.259 312.105,282.236 358.521,262.011 362.469,271.095 389.431,232.573 
			344.871,230.669 348.97,240.082 312.28,256.079 268.585,236.351 181.976,236.169 105.782,279.784 117.67,300.557 		"/>
	</g>
</g>
<g>
</g>
<g>
</g>
<g>
</g>
<g>
</g>
<g>
</g>
<g>
</g>
<g>
</g>
<g>
</g>
<g>
</g>
<g>
</g>
<g>
</g>
<g>
</g>
<g>
</g>
<g>
</g>
<g>
</g>
</svg>
